{
	"bufferViews":[{
		"buffer":0,
		"byteOffset":0,
		"byteLength":186096,
		"target":34963
	},
	{
		"buffer":0,
		"byteOffset":186096,
		"byteLength":722560,
		"target":34962,
		"byteStride":32
	}],
	"asset":{
		"version":"2.0",
		"generator":"Created using the official Cinema 4D glTF Exporter 1.000x290161"
	},
	"scenes":[{
		"nodes":[0]
	}],
	"nodes":[{
		"name":"Group5732",
		"mesh":0
	}],
	"meshes":[{
		"primitives":[{
			"attributes":{
				"POSITION":1,
				"NORMAL":2,
				"TEXCOORD_0":3
			},
			"indices":0,
			"material":0
		}]
	}],
	"accessors":[{
		"bufferView":0,
		"type":"SCALAR",
		"componentType":5123,
		"count":93048,
		"byteOffset":0,
		"min":[0],
		"max":[22579]
	},
	{
		"bufferView":1,
		"type":"VEC3",
		"componentType":5126,
		"count":22580,
		"byteOffset":0,
		"min":[-0.6679636240005493,
		-1.005160927772522,
		-0.9085731506347656],
		"max":[0.668556272983551,
		0.9919244050979614,
		0.8799268007278442]
	},
	{
		"bufferView":1,
		"type":"VEC3",
		"componentType":5126,
		"count":22580,
		"byteOffset":12,
		"min":[-0.9999833106994629,
		-0.9999909400939941,
		-0.9998950958251953],
		"max":[0.9999802112579346,
		0.9999681115150452,
		0.9999844431877136]
	},
	{
		"bufferView":1,
		"type":"VEC2",
		"componentType":5126,
		"count":22580,
		"byteOffset":24,
		"min":[0.0019499999471008778,
		0.010739998891949654],
		"max":[0.9974700212478638,
		0.9980499744415283]
	}],
	"buffers":[{
		"uri":"data:application/octet-stream;base64,",
		"byteLength":908656
	}],
	"materials":[{
		"pbrMetallicRoughness":{
			"baseColorFactor":[1.0,
			1.0,
			1.0,
			1.0],
			"metallicFactor":0.0,
			"roughnessFactor":0.5
		},
		"emissiveFactor":[0.0,
		0.0,
		0.0],
		"alphaMode":"OPAQUE",
		"doubleSided":true,
		"name":"defaultMat"
	}]
}