{
	"asset":{
		"version":"2.0",
		"generator":"Created using the official Cinema 4D glTF Exporter 1.000x290161"
	},
	"scenes":[{
		"nodes":[0,
		1,
		2,
		3,
		4,
		5,
		6,
		7,
		8,
		9]
	}],
	"nodes":[{
		"name":"BAUBEL 1",
		"translation":[-0.7522996664047241,
		0.2091081440448761,
		-0.0032565223518759014],
		"rotation":[0.0,
		-0.9063078165054321,
		0.0,
		-0.4226182699203491],
		"scale":[1.0,
		1.0,
		1.0],
		"mesh":0
	},
	{
		"name":"BAUBEL 2",
		"translation":[-0.2155926525592804,
		1.4162540435791016,
		0.05522981658577919],
		"rotation":[0.0,
		-0.9063078165054321,
		0.0,
		-0.4226182699203491],
		"scale":[1.0,
		1.0,
		1.0],
		"mesh":1
	},
	{
		"name":"BAUBEL 3",
		"translation":[-0.37148281931877139,
		0.5884665250778198,
		-0.5411028265953064],
		"rotation":[0.0,
		-0.9063078165054321,
		0.0,
		-0.4226182699203491],
		"scale":[1.0,
		1.0,
		1.0],
		"mesh":2
	},
	{
		"name":"BAUBEL 4",
		"translation":[0.15751466155052186,
		1.0330382585525513,
		0.2863501310348511],
		"rotation":[0.0,
		-0.9063078165054321,
		0.0,
		-0.4226182699203491],
		"scale":[1.0,
		1.0,
		1.0],
		"mesh":3
	},
	{
		"name":"BAUBEL 5",
		"translation":[0.7277862429618836,
		0.32340672612190249,
		-0.40688157081604006],
		"rotation":[0.0,
		0.0,
		0.0,
		-1.0],
		"scale":[1.0,
		1.0,
		1.0],
		"mesh":4
	},
	{
		"name":"BAUBEL 6",
		"translation":[-0.013472607359290123,
		0.40342259407043459,
		0.8308132886886597],
		"rotation":[0.0,
		0.0,
		0.0,
		-1.0],
		"scale":[1.0,
		1.0,
		1.0],
		"mesh":5
	},
	{
		"name":"BAUBEL 7",
		"translation":[0.3010393977165222,
		0.9470623135566711,
		-0.29669058322906496],
		"rotation":[0.0,
		0.0,
		0.0,
		-1.0],
		"scale":[1.0,
		1.0,
		1.0],
		"mesh":6
	},
	{
		"name":"BAUBEL 8",
		"translation":[0.5666530728340149,
		0.5884665250778198,
		0.3728828728199005],
		"rotation":[0.0,
		0.0,
		0.0,
		-1.0],
		"scale":[1.0,
		1.0,
		1.0],
		"mesh":7
	},
	{
		"name":"BAUBEL 9",
		"translation":[-0.5471829771995544,
		0.6660040020942688,
		0.23598706722259522],
		"rotation":[0.0,
		0.0,
		0.0,
		-1.0],
		"scale":[1.0,
		1.0,
		1.0],
		"mesh":8
	},
	{
		"name":"Tree",
		"translation":[0.0000050763346735038798,
		0.0,
		0.0],
		"rotation":[0.0,
		0.0,
		0.0,
		-1.0],
		"scale":[1.0,
		1.0,
		1.0],
		"children":[10,
		16,
		17]
	},
	{
		"name":"Cloner",
		"translation":[-3.807250692489106e-8,
		0.75,
		0.0],
		"rotation":[0.0,
		0.0,
		0.0,
		-1.0],
		"scale":[1.0,
		1.0,
		1.0],
		"children":[11,
		12,
		13,
		14,
		15]
	},
	{
		"name":"Cone 0",
		"mesh":9
	},
	{
		"name":"Cone 1",
		"translation":[0.0,
		0.22499999403953553,
		0.0],
		"rotation":[0.0,
		0.0,
		0.0,
		-1.0],
		"scale":[0.800000011920929,
		0.800000011920929,
		0.800000011920929],
		"mesh":10
	},
	{
		"name":"Cone 2",
		"translation":[0.0,
		0.44999998807907107,
		0.0],
		"rotation":[0.0,
		0.0,
		0.0,
		-1.0],
		"scale":[0.6000000238418579,
		0.6000000238418579,
		0.6000000238418579],
		"mesh":11
	},
	{
		"name":"Cone 3",
		"translation":[0.0,
		0.675000011920929,
		0.0],
		"rotation":[0.0,
		0.0,
		0.0,
		-1.0],
		"scale":[0.4000000059604645,
		0.4000000059604645,
		0.4000000059604645],
		"mesh":12
	},
	{
		"name":"Cone 4",
		"translation":[0.0,
		0.8999999761581421,
		0.0],
		"rotation":[0.0,
		0.0,
		0.0,
		-1.0],
		"scale":[0.20000000298023225,
		0.20000000298023225,
		0.20000000298023225],
		"mesh":13
	},
	{
		"name":"cap",
		"translation":[-3.807251047760474e-8,
		1.7680686712265015,
		0.0],
		"rotation":[0.0,
		0.0,
		0.0,
		-1.0],
		"scale":[1.0,
		1.0,
		1.0],
		"mesh":14
	},
	{
		"name":"Star",
		"translation":[-2.5672374448504344e-8,
		1.9116724729537964,
		-2.1486098202683865e-15],
		"rotation":[1.053671194739536e-8,
		1.0,
		-6.594040983044891e-17,
		-1.7484555314695172e-7],
		"scale":[1.0,
		1.0,
		1.0],
		"mesh":15
	}],
	"meshes":[{
		"primitives":[{
			"attributes":{
				"POSITION":1,
				"NORMAL":2,
				"TEXCOORD_0":3
			},
			"indices":0,
			"material":0
		}]
	},
	{
		"primitives":[{
			"attributes":{
				"POSITION":5,
				"NORMAL":6,
				"TEXCOORD_0":7
			},
			"indices":4,
			"material":0
		}]
	},
	{
		"primitives":[{
			"attributes":{
				"POSITION":9,
				"NORMAL":10,
				"TEXCOORD_0":11
			},
			"indices":8,
			"material":0
		}]
	},
	{
		"primitives":[{
			"attributes":{
				"POSITION":13,
				"NORMAL":14,
				"TEXCOORD_0":15
			},
			"indices":12,
			"material":0
		}]
	},
	{
		"primitives":[{
			"attributes":{
				"POSITION":17,
				"NORMAL":18,
				"TEXCOORD_0":19
			},
			"indices":16,
			"material":0
		}]
	},
	{
		"primitives":[{
			"attributes":{
				"POSITION":21,
				"NORMAL":22,
				"TEXCOORD_0":23
			},
			"indices":20,
			"material":0
		}]
	},
	{
		"primitives":[{
			"attributes":{
				"POSITION":25,
				"NORMAL":26,
				"TEXCOORD_0":27
			},
			"indices":24,
			"material":0
		}]
	},
	{
		"primitives":[{
			"attributes":{
				"POSITION":29,
				"NORMAL":30,
				"TEXCOORD_0":31
			},
			"indices":28,
			"material":0
		}]
	},
	{
		"primitives":[{
			"attributes":{
				"POSITION":33,
				"NORMAL":34,
				"TEXCOORD_0":35
			},
			"indices":32,
			"material":0
		}]
	},
	{
		"primitives":[{
			"attributes":{
				"POSITION":37,
				"NORMAL":38,
				"TEXCOORD_0":39
			},
			"indices":36,
			"material":1
		}]
	},
	{
		"primitives":[{
			"attributes":{
				"POSITION":41,
				"NORMAL":42,
				"TEXCOORD_0":43
			},
			"indices":40,
			"material":1
		}]
	},
	{
		"primitives":[{
			"attributes":{
				"POSITION":45,
				"NORMAL":46,
				"TEXCOORD_0":47
			},
			"indices":44,
			"material":1
		}]
	},
	{
		"primitives":[{
			"attributes":{
				"POSITION":49,
				"NORMAL":50,
				"TEXCOORD_0":51
			},
			"indices":48,
			"material":1
		}]
	},
	{
		"primitives":[{
			"attributes":{
				"POSITION":53,
				"NORMAL":54,
				"TEXCOORD_0":55
			},
			"indices":52,
			"material":1
		}]
	},
	{
		"primitives":[{
			"attributes":{
				"POSITION":57,
				"NORMAL":58,
				"TEXCOORD_0":59
			},
			"indices":56,
			"material":2
		}]
	},
	{
		"primitives":[{
			"attributes":{
				"POSITION":61,
				"NORMAL":62,
				"TEXCOORD_0":63
			},
			"indices":60,
			"material":2
		}]
	}],
	"accessors":[{
		"bufferView":0,
		"type":"SCALAR",
		"componentType":5123,
		"count":348,
		"byteOffset":0,
		"min":[0],
		"max":[179]
	},
	{
		"bufferView":1,
		"type":"VEC3",
		"componentType":5126,
		"count":180,
		"byteOffset":0,
		"min":[-0.09633708000183106,
		-0.09474130719900131,
		-0.0920269787311554],
		"max":[0.09633772075176239,
		0.09474102407693863,
		0.0920279249548912]
	},
	{
		"bufferView":1,
		"type":"VEC3",
		"componentType":5126,
		"count":180,
		"byteOffset":12,
		"min":[-0.9344881176948547,
		-0.9822434186935425,
		-1.0],
		"max":[0.9348706007003784,
		0.9822649955749512,
		0.9999997615814209]
	},
	{
		"bufferView":1,
		"type":"VEC2",
		"componentType":5126,
		"count":180,
		"byteOffset":24,
		"min":[0.0020000000949949028,
		0.004999999888241291],
		"max":[0.9929999709129334,
		0.9989999532699585]
	},
	{
		"bufferView":2,
		"type":"SCALAR",
		"componentType":5123,
		"count":348,
		"byteOffset":0,
		"min":[0],
		"max":[179]
	},
	{
		"bufferView":3,
		"type":"VEC3",
		"componentType":5126,
		"count":180,
		"byteOffset":0,
		"min":[-0.09633708000183106,
		-0.09474130719900131,
		-0.0920269787311554],
		"max":[0.09633772075176239,
		0.09474102407693863,
		0.0920279249548912]
	},
	{
		"bufferView":3,
		"type":"VEC3",
		"componentType":5126,
		"count":180,
		"byteOffset":12,
		"min":[-0.9344881176948547,
		-0.9822434186935425,
		-1.0],
		"max":[0.9348706007003784,
		0.9822649955749512,
		0.9999997615814209]
	},
	{
		"bufferView":3,
		"type":"VEC2",
		"componentType":5126,
		"count":180,
		"byteOffset":24,
		"min":[0.0020000000949949028,
		0.004999999888241291],
		"max":[0.9929999709129334,
		0.9989999532699585]
	},
	{
		"bufferView":4,
		"type":"SCALAR",
		"componentType":5123,
		"count":348,
		"byteOffset":0,
		"min":[0],
		"max":[179]
	},
	{
		"bufferView":5,
		"type":"VEC3",
		"componentType":5126,
		"count":180,
		"byteOffset":0,
		"min":[-0.09633708000183106,
		-0.09474130719900131,
		-0.0920269787311554],
		"max":[0.09633772075176239,
		0.09474102407693863,
		0.0920279249548912]
	},
	{
		"bufferView":5,
		"type":"VEC3",
		"componentType":5126,
		"count":180,
		"byteOffset":12,
		"min":[-0.9344881176948547,
		-0.9822434186935425,
		-1.0],
		"max":[0.9348706007003784,
		0.9822649955749512,
		0.9999997615814209]
	},
	{
		"bufferView":5,
		"type":"VEC2",
		"componentType":5126,
		"count":180,
		"byteOffset":24,
		"min":[0.0020000000949949028,
		0.004999999888241291],
		"max":[0.9929999709129334,
		0.9989999532699585]
	},
	{
		"bufferView":6,
		"type":"SCALAR",
		"componentType":5123,
		"count":348,
		"byteOffset":0,
		"min":[0],
		"max":[179]
	},
	{
		"bufferView":7,
		"type":"VEC3",
		"componentType":5126,
		"count":180,
		"byteOffset":0,
		"min":[-0.09633708000183106,
		-0.09474130719900131,
		-0.0920269787311554],
		"max":[0.09633772075176239,
		0.09474102407693863,
		0.0920279249548912]
	},
	{
		"bufferView":7,
		"type":"VEC3",
		"componentType":5126,
		"count":180,
		"byteOffset":12,
		"min":[-0.9344881176948547,
		-0.9822434186935425,
		-1.0],
		"max":[0.9348706007003784,
		0.9822649955749512,
		0.9999997615814209]
	},
	{
		"bufferView":7,
		"type":"VEC2",
		"componentType":5126,
		"count":180,
		"byteOffset":24,
		"min":[0.0020000000949949028,
		0.004999999888241291],
		"max":[0.9929999709129334,
		0.9989999532699585]
	},
	{
		"bufferView":8,
		"type":"SCALAR",
		"componentType":5123,
		"count":348,
		"byteOffset":0,
		"min":[0],
		"max":[179]
	},
	{
		"bufferView":9,
		"type":"VEC3",
		"componentType":5126,
		"count":180,
		"byteOffset":0,
		"min":[-0.09633708000183106,
		-0.09474130719900131,
		-0.0920269787311554],
		"max":[0.09633772075176239,
		0.09474102407693863,
		0.0920279249548912]
	},
	{
		"bufferView":9,
		"type":"VEC3",
		"componentType":5126,
		"count":180,
		"byteOffset":12,
		"min":[-0.9344881176948547,
		-0.9822434186935425,
		-1.0],
		"max":[0.9348706007003784,
		0.9822649955749512,
		0.9999997615814209]
	},
	{
		"bufferView":9,
		"type":"VEC2",
		"componentType":5126,
		"count":180,
		"byteOffset":24,
		"min":[0.0020000000949949028,
		0.004999999888241291],
		"max":[0.9929999709129334,
		0.9989999532699585]
	},
	{
		"bufferView":10,
		"type":"SCALAR",
		"componentType":5123,
		"count":348,
		"byteOffset":0,
		"min":[0],
		"max":[179]
	},
	{
		"bufferView":11,
		"type":"VEC3",
		"componentType":5126,
		"count":180,
		"byteOffset":0,
		"min":[-0.09633708000183106,
		-0.09474130719900131,
		-0.0920269787311554],
		"max":[0.09633772075176239,
		0.09474102407693863,
		0.0920279249548912]
	},
	{
		"bufferView":11,
		"type":"VEC3",
		"componentType":5126,
		"count":180,
		"byteOffset":12,
		"min":[-0.9344881176948547,
		-0.9822434186935425,
		-1.0],
		"max":[0.9348706007003784,
		0.9822649955749512,
		0.9999997615814209]
	},
	{
		"bufferView":11,
		"type":"VEC2",
		"componentType":5126,
		"count":180,
		"byteOffset":24,
		"min":[0.0020000000949949028,
		0.004999999888241291],
		"max":[0.9929999709129334,
		0.9989999532699585]
	},
	{
		"bufferView":12,
		"type":"SCALAR",
		"componentType":5123,
		"count":348,
		"byteOffset":0,
		"min":[0],
		"max":[179]
	},
	{
		"bufferView":13,
		"type":"VEC3",
		"componentType":5126,
		"count":180,
		"byteOffset":0,
		"min":[-0.09633708000183106,
		-0.09474130719900131,
		-0.0920269787311554],
		"max":[0.09633772075176239,
		0.09474102407693863,
		0.0920279249548912]
	},
	{
		"bufferView":13,
		"type":"VEC3",
		"componentType":5126,
		"count":180,
		"byteOffset":12,
		"min":[-0.9344881176948547,
		-0.9822434186935425,
		-1.0],
		"max":[0.9348706007003784,
		0.9822649955749512,
		0.9999997615814209]
	},
	{
		"bufferView":13,
		"type":"VEC2",
		"componentType":5126,
		"count":180,
		"byteOffset":24,
		"min":[0.0020000000949949028,
		0.004999999888241291],
		"max":[0.9929999709129334,
		0.9989999532699585]
	},
	{
		"bufferView":14,
		"type":"SCALAR",
		"componentType":5123,
		"count":348,
		"byteOffset":0,
		"min":[0],
		"max":[179]
	},
	{
		"bufferView":15,
		"type":"VEC3",
		"componentType":5126,
		"count":180,
		"byteOffset":0,
		"min":[-0.09633708000183106,
		-0.09474130719900131,
		-0.0920269787311554],
		"max":[0.09633772075176239,
		0.09474102407693863,
		0.0920279249548912]
	},
	{
		"bufferView":15,
		"type":"VEC3",
		"componentType":5126,
		"count":180,
		"byteOffset":12,
		"min":[-0.9344881176948547,
		-0.9822434186935425,
		-1.0],
		"max":[0.9348706007003784,
		0.9822649955749512,
		0.9999997615814209]
	},
	{
		"bufferView":15,
		"type":"VEC2",
		"componentType":5126,
		"count":180,
		"byteOffset":24,
		"min":[0.0020000000949949028,
		0.004999999888241291],
		"max":[0.9929999709129334,
		0.9989999532699585]
	},
	{
		"bufferView":16,
		"type":"SCALAR",
		"componentType":5123,
		"count":348,
		"byteOffset":0,
		"min":[0],
		"max":[179]
	},
	{
		"bufferView":17,
		"type":"VEC3",
		"componentType":5126,
		"count":180,
		"byteOffset":0,
		"min":[-0.09633708000183106,
		-0.09474130719900131,
		-0.0920269787311554],
		"max":[0.09633772075176239,
		0.09474102407693863,
		0.0920279249548912]
	},
	{
		"bufferView":17,
		"type":"VEC3",
		"componentType":5126,
		"count":180,
		"byteOffset":12,
		"min":[-0.9344881176948547,
		-0.9822434186935425,
		-1.0],
		"max":[0.9348706007003784,
		0.9822649955749512,
		0.9999997615814209]
	},
	{
		"bufferView":17,
		"type":"VEC2",
		"componentType":5126,
		"count":180,
		"byteOffset":24,
		"min":[0.0020000000949949028,
		0.004999999888241291],
		"max":[0.9929999709129334,
		0.9989999532699585]
	},
	{
		"bufferView":18,
		"type":"SCALAR",
		"componentType":5123,
		"count":216,
		"byteOffset":0,
		"min":[0],
		"max":[101]
	},
	{
		"bufferView":19,
		"type":"VEC3",
		"componentType":5126,
		"count":102,
		"byteOffset":0,
		"min":[-0.9369155168533325,
		-0.75,
		-1.0630977153778077],
		"max":[0.9369155168533325,
		0.75,
		1.1006160974502564]
	},
	{
		"bufferView":19,
		"type":"VEC3",
		"componentType":5126,
		"count":102,
		"byteOffset":12,
		"min":[-0.8497140407562256,
		0.0,
		-0.969622790813446],
		"max":[0.8497140407562256,
		0.7273494601249695,
		0.969622790813446]
	},
	{
		"bufferView":19,
		"type":"VEC2",
		"componentType":5126,
		"count":102,
		"byteOffset":24,
		"min":[0.0,
		0.0],
		"max":[1.0,
		1.0]
	},
	{
		"bufferView":20,
		"type":"SCALAR",
		"componentType":5123,
		"count":216,
		"byteOffset":0,
		"min":[0],
		"max":[101]
	},
	{
		"bufferView":21,
		"type":"VEC3",
		"componentType":5126,
		"count":102,
		"byteOffset":0,
		"min":[-0.9369155168533325,
		-0.75,
		-1.0630977153778077],
		"max":[0.9369155168533325,
		0.75,
		1.1006160974502564]
	},
	{
		"bufferView":21,
		"type":"VEC3",
		"componentType":5126,
		"count":102,
		"byteOffset":12,
		"min":[-0.8497140407562256,
		0.0,
		-0.969622790813446],
		"max":[0.8497140407562256,
		0.7273494601249695,
		0.969622790813446]
	},
	{
		"bufferView":21,
		"type":"VEC2",
		"componentType":5126,
		"count":102,
		"byteOffset":24,
		"min":[0.0,
		0.0],
		"max":[1.0,
		1.0]
	},
	{
		"bufferView":22,
		"type":"SCALAR",
		"componentType":5123,
		"count":216,
		"byteOffset":0,
		"min":[0],
		"max":[101]
	},
	{
		"bufferView":23,
		"type":"VEC3",
		"componentType":5126,
		"count":102,
		"byteOffset":0,
		"min":[-0.9369155168533325,
		-0.75,
		-1.0630977153778077],
		"max":[0.9369155168533325,
		0.75,
		1.1006160974502564]
	},
	{
		"bufferView":23,
		"type":"VEC3",
		"componentType":5126,
		"count":102,
		"byteOffset":12,
		"min":[-0.8497140407562256,
		0.0,
		-0.969622790813446],
		"max":[0.8497140407562256,
		0.7273494601249695,
		0.969622790813446]
	},
	{
		"bufferView":23,
		"type":"VEC2",
		"componentType":5126,
		"count":102,
		"byteOffset":24,
		"min":[0.0,
		0.0],
		"max":[1.0,
		1.0]
	},
	{
		"bufferView":24,
		"type":"SCALAR",
		"componentType":5123,
		"count":216,
		"byteOffset":0,
		"min":[0],
		"max":[101]
	},
	{
		"bufferView":25,
		"type":"VEC3",
		"componentType":5126,
		"count":102,
		"byteOffset":0,
		"min":[-0.9369155168533325,
		-0.75,
		-1.0630977153778077],
		"max":[0.9369155168533325,
		0.75,
		1.1006160974502564]
	},
	{
		"bufferView":25,
		"type":"VEC3",
		"componentType":5126,
		"count":102,
		"byteOffset":12,
		"min":[-0.8497140407562256,
		0.0,
		-0.969622790813446],
		"max":[0.8497140407562256,
		0.7273494601249695,
		0.969622790813446]
	},
	{
		"bufferView":25,
		"type":"VEC2",
		"componentType":5126,
		"count":102,
		"byteOffset":24,
		"min":[0.0,
		0.0],
		"max":[1.0,
		1.0]
	},
	{
		"bufferView":26,
		"type":"SCALAR",
		"componentType":5123,
		"count":216,
		"byteOffset":0,
		"min":[0],
		"max":[101]
	},
	{
		"bufferView":27,
		"type":"VEC3",
		"componentType":5126,
		"count":102,
		"byteOffset":0,
		"min":[-0.9369155168533325,
		-0.75,
		-1.0630977153778077],
		"max":[0.9369155168533325,
		0.75,
		1.1006160974502564]
	},
	{
		"bufferView":27,
		"type":"VEC3",
		"componentType":5126,
		"count":102,
		"byteOffset":12,
		"min":[-0.8497140407562256,
		0.0,
		-0.969622790813446],
		"max":[0.8497140407562256,
		0.7273494601249695,
		0.969622790813446]
	},
	{
		"bufferView":27,
		"type":"VEC2",
		"componentType":5126,
		"count":102,
		"byteOffset":24,
		"min":[0.0,
		0.0],
		"max":[1.0,
		1.0]
	},
	{
		"bufferView":28,
		"type":"SCALAR",
		"componentType":5123,
		"count":360,
		"byteOffset":0,
		"min":[0],
		"max":[90]
	},
	{
		"bufferView":29,
		"type":"VEC3",
		"componentType":5126,
		"count":91,
		"byteOffset":0,
		"min":[-0.07500000298023224,
		-0.09375,
		-0.07500000298023224],
		"max":[0.07500000298023224,
		0.09375,
		0.07500000298023224]
	},
	{
		"bufferView":29,
		"type":"VEC3",
		"componentType":5126,
		"count":91,
		"byteOffset":12,
		"min":[-0.9524241089820862,
		-1.0,
		-0.9524241089820862],
		"max":[0.9524241089820862,
		1.0,
		0.9524241089820862]
	},
	{
		"bufferView":29,
		"type":"VEC2",
		"componentType":5126,
		"count":91,
		"byteOffset":24,
		"min":[0.0,
		0.0],
		"max":[1.0,
		1.0]
	},
	{
		"bufferView":30,
		"type":"SCALAR",
		"componentType":5123,
		"count":120,
		"byteOffset":0,
		"min":[0],
		"max":[119]
	},
	{
		"bufferView":31,
		"type":"VEC3",
		"componentType":5126,
		"count":120,
		"byteOffset":0,
		"min":[-0.22468715906143189,
		-0.19113034009933473,
		-0.05249999836087227],
		"max":[0.2246870994567871,
		0.23625002801418305,
		0.05249999836087227]
	},
	{
		"bufferView":31,
		"type":"VEC3",
		"componentType":5126,
		"count":120,
		"byteOffset":12,
		"min":[-0.5367003679275513,
		-0.4799063205718994,
		-0.9737600088119507],
		"max":[0.5367002487182617,
		0.560608446598053,
		0.9737656712532044]
	},
	{
		"bufferView":31,
		"type":"VEC2",
		"componentType":5126,
		"count":120,
		"byteOffset":24,
		"min":[0.0,
		0.0],
		"max":[1.0,
		1.0]
	}],
	"bufferViews":[{
		"buffer":0,
		"byteOffset":0,
		"byteLength":696,
		"target":34963
	},
	{
		"buffer":0,
		"byteOffset":696,
		"byteLength":5760,
		"target":34962,
		"byteStride":32
	},
	{
		"buffer":1,
		"byteOffset":0,
		"byteLength":696,
		"target":34963
	},
	{
		"buffer":1,
		"byteOffset":696,
		"byteLength":5760,
		"target":34962,
		"byteStride":32
	},
	{
		"buffer":2,
		"byteOffset":0,
		"byteLength":696,
		"target":34963
	},
	{
		"buffer":2,
		"byteOffset":696,
		"byteLength":5760,
		"target":34962,
		"byteStride":32
	},
	{
		"buffer":3,
		"byteOffset":0,
		"byteLength":696,
		"target":34963
	},
	{
		"buffer":3,
		"byteOffset":696,
		"byteLength":5760,
		"target":34962,
		"byteStride":32
	},
	{
		"buffer":4,
		"byteOffset":0,
		"byteLength":696,
		"target":34963
	},
	{
		"buffer":4,
		"byteOffset":696,
		"byteLength":5760,
		"target":34962,
		"byteStride":32
	},
	{
		"buffer":5,
		"byteOffset":0,
		"byteLength":696,
		"target":34963
	},
	{
		"buffer":5,
		"byteOffset":696,
		"byteLength":5760,
		"target":34962,
		"byteStride":32
	},
	{
		"buffer":6,
		"byteOffset":0,
		"byteLength":696,
		"target":34963
	},
	{
		"buffer":6,
		"byteOffset":696,
		"byteLength":5760,
		"target":34962,
		"byteStride":32
	},
	{
		"buffer":7,
		"byteOffset":0,
		"byteLength":696,
		"target":34963
	},
	{
		"buffer":7,
		"byteOffset":696,
		"byteLength":5760,
		"target":34962,
		"byteStride":32
	},
	{
		"buffer":8,
		"byteOffset":0,
		"byteLength":696,
		"target":34963
	},
	{
		"buffer":8,
		"byteOffset":696,
		"byteLength":5760,
		"target":34962,
		"byteStride":32
	},
	{
		"buffer":9,
		"byteOffset":0,
		"byteLength":432,
		"target":34963
	},
	{
		"buffer":9,
		"byteOffset":432,
		"byteLength":3264,
		"target":34962,
		"byteStride":32
	},
	{
		"buffer":10,
		"byteOffset":0,
		"byteLength":432,
		"target":34963
	},
	{
		"buffer":10,
		"byteOffset":432,
		"byteLength":3264,
		"target":34962,
		"byteStride":32
	},
	{
		"buffer":11,
		"byteOffset":0,
		"byteLength":432,
		"target":34963
	},
	{
		"buffer":11,
		"byteOffset":432,
		"byteLength":3264,
		"target":34962,
		"byteStride":32
	},
	{
		"buffer":12,
		"byteOffset":0,
		"byteLength":432,
		"target":34963
	},
	{
		"buffer":12,
		"byteOffset":432,
		"byteLength":3264,
		"target":34962,
		"byteStride":32
	},
	{
		"buffer":13,
		"byteOffset":0,
		"byteLength":432,
		"target":34963
	},
	{
		"buffer":13,
		"byteOffset":432,
		"byteLength":3264,
		"target":34962,
		"byteStride":32
	},
	{
		"buffer":14,
		"byteOffset":0,
		"byteLength":720,
		"target":34963
	},
	{
		"buffer":14,
		"byteOffset":720,
		"byteLength":2912,
		"target":34962,
		"byteStride":32
	},
	{
		"buffer":15,
		"byteOffset":0,
		"byteLength":240,
		"target":34963
	},
	{
		"buffer":15,
		"byteOffset":240,
		"byteLength":3840,
		"target":34962,
		"byteStride":32
	}],
	"buffers":[{
		"uri":"data:application/octet-stream;base64,",
		"byteLength":6456
	},
	{
		"uri":"data:application/octet-stream;base64,",
		"byteLength":6456
	},
	{
		"uri":"data:application/octet-stream;base64,",
		"byteLength":6456
	},
	{
		"uri":"data:application/octet-stream;base64,",
		"byteLength":6456
	},
	{
		"uri":"data:application/octet-stream;base64,",
		"byteLength":6456
	},
	{
		"uri":"data:application/octet-stream;base64,",
		"byteLength":6456
	},
	{
		"uri":"data:application/octet-stream;base64,",
		"byteLength":6456
	},
	{
		"uri":"data:application/octet-stream;base64,",
		"byteLength":6456
	},
	{
		"uri":"data:application/octet-stream;base64,",
		"byteLength":6456
	},
	{
		"uri":"data:application/octet-stream;base64,",
		"byteLength":3696
	},
	{
		"uri":"data:application/octet-stream;base64,",
		"byteLength":3696
	},
	{
		"uri":"data:application/octet-stream;base64,",
		"byteLength":3696
	},
	{
		"uri":"data:application/octet-stream;base64,",
		"byteLength":3696
	},
	{
		"uri":"data:application/octet-stream;base64,",
		"byteLength":3696
	},
	{
		"uri":"data:application/octet-stream;base64,",
		"byteLength":3632
	},
	{
		"uri":"data:application/octet-stream;base64,",
		"byteLength":4080
	}],
	"materials":[{
		"pbrMetallicRoughness":{
			"baseColorFactor":[1.0,
			0.0,
			0.0,
			1.0],
			"metallicFactor":1.0,
			"roughnessFactor":0.5
		},
		"emissiveFactor":[0.0,
		0.0,
		0.0],
		"alphaMode":"OPAQUE",
		"doubleSided":true,
		"name":"Baubles"
	},
	{
		"pbrMetallicRoughness":{
			"baseColorFactor":[0.0,
			0.46,
			0.06899999999999997,
			1.0],
			"metallicFactor":1.0,
			"roughnessFactor":0.5
		},
		"emissiveFactor":[0.0,
		0.0,
		0.0],
		"alphaMode":"OPAQUE",
		"doubleSided":true,
		"name":"Leaves"
	},
	{
		"pbrMetallicRoughness":{
			"baseColorFactor":[0.9960784316062927,
			0.6474509805440903,
			0.0,
			1.0],
			"metallicFactor":1.0,
			"roughnessFactor":0.5
		},
		"emissiveFactor":[0.0,
		0.0,
		0.0],
		"alphaMode":"OPAQUE",
		"doubleSided":true,
		"name":"Star_Step1"
	}]
}