{
	"asset":{
		"version":"2.0",
		"generator":"Created using the official Cinema 4D glTF Exporter 1.000x290161"
	},
	"scenes":[{
		"nodes":[0,
		4,
		8]
	}],
	"nodes":[{
		"name":"Cloner",
		"children":[1,
		2,
		3]
	},
	{
		"name":"Cone 0",
		"mesh":0
	},
	{
		"name":"Cone 1",
		"translation":[0.0,
		50.0,
		0.0],
		"rotation":[0.0,
		0.0,
		0.0,
		-1.0],
		"scale":[0.800000011920929,
		0.800000011920929,
		0.800000011920929],
		"mesh":1
	},
	{
		"name":"Cone 2",
		"translation":[0.0,
		100.0,
		0.0],
		"rotation":[0.0,
		0.0,
		0.0,
		-1.0],
		"scale":[0.6000000238418579,
		0.6000000238418579,
		0.6000000238418579],
		"mesh":2
	},
	{
		"name":"Star",
		"translation":[0.0000020687766664195807,
		174.60289001464845,
		-3.6171640769439019e-13],
		"rotation":[1.053671194739536e-8,
		1.0,
		-9.211486477764069e-16,
		-8.742277657347586e-8],
		"scale":[1.0,
		1.0,
		1.0],
		"children":[5]
	},
	{
		"name":"Star",
		"translation":[5.538686069123392e-22,
		-5.684341886080802e-14,
		0.0],
		"rotation":[0.0,
		-8.742277657347586e-8,
		0.0,
		-1.0],
		"scale":[1.0,
		1.0,
		1.0],
		"mesh":3,
		"children":[6,
		7]
	},
	{
		"name":"Cap 1",
		"translation":[0.00000869554696691921,
		-1.2211107504930125e-13,
		-10.0],
		"rotation":[0.5,
		0.5000000596046448,
		-0.5000000596046448,
		-0.4999998211860657],
		"scale":[1.0000001192092896,
		1.0,
		1.0000001192092896],
		"mesh":4
	},
	{
		"name":"Cap 2",
		"translation":[-0.000005572734153247438,
		-0.000003956614818889648,
		10.0],
		"rotation":[0.5,
		0.5000000596046448,
		-0.5000000596046448,
		-0.4999998211860657],
		"scale":[1.0000001192092896,
		1.0,
		1.0000001192092896],
		"mesh":5
	},
	{
		"name":"trunk",
		"translation":[0.0,
		-142.66891479492188,
		0.0],
		"rotation":[0.0,
		0.0,
		0.0,
		-1.0],
		"scale":[1.0,
		1.0,
		1.0],
		"mesh":6
	}],
	"meshes":[{
		"primitives":[{
			"attributes":{
				"POSITION":1,
				"NORMAL":2,
				"TEXCOORD_0":3
			},
			"indices":0,
			"material":0
		}]
	},
	{
		"primitives":[{
			"attributes":{
				"POSITION":5,
				"NORMAL":6,
				"TEXCOORD_0":7
			},
			"indices":4,
			"material":0
		}]
	},
	{
		"primitives":[{
			"attributes":{
				"POSITION":9,
				"NORMAL":10,
				"TEXCOORD_0":11
			},
			"indices":8,
			"material":0
		}]
	},
	{
		"primitives":[{
			"attributes":{
				"POSITION":13,
				"NORMAL":14,
				"TEXCOORD_0":15
			},
			"indices":12,
			"material":1
		}]
	},
	{
		"primitives":[{
			"attributes":{
				"POSITION":17,
				"NORMAL":18,
				"TEXCOORD_0":19
			},
			"indices":16,
			"material":1
		}]
	},
	{
		"primitives":[{
			"attributes":{
				"POSITION":21,
				"NORMAL":22,
				"TEXCOORD_0":23
			},
			"indices":20,
			"material":1
		}]
	},
	{
		"primitives":[{
			"attributes":{
				"POSITION":25,
				"NORMAL":26,
				"TEXCOORD_0":27
			},
			"indices":24,
			"material":2
		}]
	}],
	"accessors":[{
		"bufferView":0,
		"type":"SCALAR",
		"componentType":5123,
		"count":216,
		"byteOffset":0,
		"min":[0],
		"max":[96]
	},
	{
		"bufferView":1,
		"type":"VEC3",
		"componentType":5126,
		"count":97,
		"byteOffset":0,
		"min":[-102.8416519165039,
		-100.0,
		-118.75130462646485],
		"max":[102.8416519165039,
		100.0,
		118.75130462646485]
	},
	{
		"bufferView":1,
		"type":"VEC3",
		"componentType":5126,
		"count":97,
		"byteOffset":12,
		"min":[-0.9188786745071411,
		0.0,
		-0.9234569072723389],
		"max":[0.9188786745071411,
		0.5243933796882629,
		0.9234569072723389]
	},
	{
		"bufferView":1,
		"type":"VEC2",
		"componentType":5126,
		"count":97,
		"byteOffset":24,
		"min":[0.0,
		0.0],
		"max":[1.0,
		1.0]
	},
	{
		"bufferView":2,
		"type":"SCALAR",
		"componentType":5123,
		"count":216,
		"byteOffset":0,
		"min":[0],
		"max":[96]
	},
	{
		"bufferView":3,
		"type":"VEC3",
		"componentType":5126,
		"count":97,
		"byteOffset":0,
		"min":[-102.8416519165039,
		-100.0,
		-118.75130462646485],
		"max":[102.8416519165039,
		100.0,
		118.75130462646485]
	},
	{
		"bufferView":3,
		"type":"VEC3",
		"componentType":5126,
		"count":97,
		"byteOffset":12,
		"min":[-0.9188786745071411,
		0.0,
		-0.9234569072723389],
		"max":[0.9188786745071411,
		0.5243933796882629,
		0.9234569072723389]
	},
	{
		"bufferView":3,
		"type":"VEC2",
		"componentType":5126,
		"count":97,
		"byteOffset":24,
		"min":[0.0,
		0.0],
		"max":[1.0,
		1.0]
	},
	{
		"bufferView":4,
		"type":"SCALAR",
		"componentType":5123,
		"count":216,
		"byteOffset":0,
		"min":[0],
		"max":[96]
	},
	{
		"bufferView":5,
		"type":"VEC3",
		"componentType":5126,
		"count":97,
		"byteOffset":0,
		"min":[-102.8416519165039,
		-100.0,
		-118.75130462646485],
		"max":[102.8416519165039,
		100.0,
		118.75130462646485]
	},
	{
		"bufferView":5,
		"type":"VEC3",
		"componentType":5126,
		"count":97,
		"byteOffset":12,
		"min":[-0.9188786745071411,
		0.0,
		-0.9234569072723389],
		"max":[0.9188786745071411,
		0.5243933796882629,
		0.9234569072723389]
	},
	{
		"bufferView":5,
		"type":"VEC2",
		"componentType":5126,
		"count":97,
		"byteOffset":24,
		"min":[0.0,
		0.0],
		"max":[1.0,
		1.0]
	},
	{
		"bufferView":6,
		"type":"SCALAR",
		"componentType":5123,
		"count":120,
		"byteOffset":0,
		"min":[0],
		"max":[111]
	},
	{
		"bufferView":7,
		"type":"VEC3",
		"componentType":5126,
		"count":112,
		"byteOffset":0,
		"min":[-43.201324462890628,
		-36.749244689941409,
		-10.0],
		"max":[43.20131301879883,
		45.42455291748047,
		10.0]
	},
	{
		"bufferView":7,
		"type":"VEC3",
		"componentType":5126,
		"count":112,
		"byteOffset":12,
		"min":[-0.5367395281791687,
		-0.4602939188480377,
		-0.8279753923416138],
		"max":[0.5367394685745239,
		0.5606496334075928,
		0.8279763460159302]
	},
	{
		"bufferView":7,
		"type":"VEC2",
		"componentType":5126,
		"count":112,
		"byteOffset":24,
		"min":[0.0,
		0.0],
		"max":[1.0,
		1.0]
	},
	{
		"bufferView":8,
		"type":"SCALAR",
		"componentType":5123,
		"count":24,
		"byteOffset":0,
		"min":[0],
		"max":[9]
	},
	{
		"bufferView":9,
		"type":"VEC3",
		"componentType":5126,
		"count":10,
		"byteOffset":0,
		"min":[-0.36749231815338137,
		-3.552713678800501e-15,
		-0.4320131242275238],
		"max":[0.4542454779148102,
		0.0,
		0.4320131242275238]
	},
	{
		"bufferView":9,
		"type":"VEC3",
		"componentType":5126,
		"count":10,
		"byteOffset":12,
		"min":[-8.672247727608326e-15,
		1.0,
		-8.316314318776702e-15],
		"max":[1.5818572377001608e-14,
		1.0,
		8.427179920143975e-15]
	},
	{
		"bufferView":9,
		"type":"VEC2",
		"componentType":5126,
		"count":10,
		"byteOffset":24,
		"min":[0.0,
		0.0],
		"max":[0.9510564804077148,
		1.0]
	},
	{
		"bufferView":10,
		"type":"SCALAR",
		"componentType":5123,
		"count":24,
		"byteOffset":0,
		"min":[0],
		"max":[9]
	},
	{
		"bufferView":11,
		"type":"VEC3",
		"componentType":5126,
		"count":10,
		"byteOffset":0,
		"min":[-0.36749231815338137,
		-1.7763568394002506e-15,
		-0.4320131242275238],
		"max":[0.4542454779148102,
		1.7763568394002506e-15,
		0.4320131242275238]
	},
	{
		"bufferView":11,
		"type":"VEC3",
		"componentType":5126,
		"count":10,
		"byteOffset":12,
		"min":[-8.006428162056663e-15,
		-1.0,
		-8.316314318776702e-15],
		"max":[0.0,
		-1.0,
		5.3191483742566149e-15]
	},
	{
		"bufferView":11,
		"type":"VEC2",
		"componentType":5126,
		"count":10,
		"byteOffset":24,
		"min":[0.0,
		0.0],
		"max":[0.9510564804077148,
		1.0]
	},
	{
		"bufferView":12,
		"type":"SCALAR",
		"componentType":5123,
		"count":120,
		"byteOffset":0,
		"min":[0],
		"max":[71]
	},
	{
		"bufferView":13,
		"type":"VEC3",
		"componentType":5126,
		"count":72,
		"byteOffset":0,
		"min":[-44.10776901245117,
		-7.344313144683838,
		-38.198448181152347],
		"max":[44.10776901245117,
		67.34431457519531,
		38.198448181152347]
	},
	{
		"bufferView":13,
		"type":"VEC3",
		"componentType":5126,
		"count":72,
		"byteOffset":12,
		"min":[-0.8660253882408142,
		-1.0,
		-1.0],
		"max":[0.8660253882408142,
		1.0,
		1.0]
	},
	{
		"bufferView":13,
		"type":"VEC2",
		"componentType":5126,
		"count":72,
		"byteOffset":24,
		"min":[0.0,
		0.0],
		"max":[1.0,
		1.0]
	}],
	"bufferViews":[{
		"buffer":0,
		"byteOffset":0,
		"byteLength":432,
		"target":34963
	},
	{
		"buffer":0,
		"byteOffset":432,
		"byteLength":3104,
		"target":34962,
		"byteStride":32
	},
	{
		"buffer":1,
		"byteOffset":0,
		"byteLength":432,
		"target":34963
	},
	{
		"buffer":1,
		"byteOffset":432,
		"byteLength":3104,
		"target":34962,
		"byteStride":32
	},
	{
		"buffer":2,
		"byteOffset":0,
		"byteLength":432,
		"target":34963
	},
	{
		"buffer":2,
		"byteOffset":432,
		"byteLength":3104,
		"target":34962,
		"byteStride":32
	},
	{
		"buffer":3,
		"byteOffset":0,
		"byteLength":240,
		"target":34963
	},
	{
		"buffer":3,
		"byteOffset":240,
		"byteLength":3584,
		"target":34962,
		"byteStride":32
	},
	{
		"buffer":4,
		"byteOffset":0,
		"byteLength":48,
		"target":34963
	},
	{
		"buffer":4,
		"byteOffset":48,
		"byteLength":320,
		"target":34962,
		"byteStride":32
	},
	{
		"buffer":5,
		"byteOffset":0,
		"byteLength":48,
		"target":34963
	},
	{
		"buffer":5,
		"byteOffset":48,
		"byteLength":320,
		"target":34962,
		"byteStride":32
	},
	{
		"buffer":6,
		"byteOffset":0,
		"byteLength":240,
		"target":34963
	},
	{
		"buffer":6,
		"byteOffset":240,
		"byteLength":2304,
		"target":34962,
		"byteStride":32
	}],
	"buffers":[{
		"uri":"data:application/octet-stream;base64,",
		"byteLength":3536
	},
	{
		"uri":"data:application/octet-stream;base64,",
		"byteLength":3536
	},
	{
		"uri":"data:application/octet-stream;base64,",
		"byteLength":3536
	},
	{
		"uri":"data:application/octet-stream;base64,",
		"byteLength":3824
	},
	{
		"uri":"data:application/octet-stream;base64,",
		"byteLength":368
	},
	{
		"uri":"data:application/octet-stream;base64,",
		"byteLength":368
	},
	{
		"uri":"data:application/octet-stream;base64,",
		"byteLength":2544
	}],
	"materials":[{
		"pbrMetallicRoughness":{
			"baseColorFactor":[0.07599999999999974,
			0.76,
			0.0,
			1.0],
			"metallicFactor":1.0,
			"roughnessFactor":1.0
		},
		"alphaMode":"OPAQUE",
		"emissiveFactor":[0.0,
		0.0,
		0.0],
		"doubleSided":false,
		"name":"leaves"
	},
	{
		"pbrMetallicRoughness":{
			"baseColorFactor":[0.8446601941747574,
			0.5862739851693296,
			0.10641388273067809,
			1.0],
			"metallicFactor":1.0,
			"roughnessFactor":0.5
		},
		"alphaMode":"OPAQUE",
		"emissiveFactor":[0.0,
		0.0,
		0.0],
		"doubleSided":false,
		"name":"Star_Step1"
	},
	{
		"pbrMetallicRoughness":{
			"baseColorFactor":[0.48,
			0.21599999999999998,
			0.0,
			1.0],
			"metallicFactor":1.0,
			"roughnessFactor":1.0
		},
		"alphaMode":"OPAQUE",
		"emissiveFactor":[0.0,
		0.0,
		0.0],
		"doubleSided":false,
		"name":"Trunk"
	}]
}