{
	"bufferViews":[{
		"buffer":0,
		"byteOffset":0,
		"byteLength":3216,
		"target":34963
	},
	{
		"buffer":0,
		"byteOffset":3216,
		"byteLength":4404,
		"target":34962
	}],
	"asset":{
		"version":"2.0",
		"generator":"Created using the official Cinema 4D glTF Exporter 1.000x290161"
	},
	"scenes":[{
		"nodes":[0]
	}],
	"nodes":[{
		"name":"Cloner",
		"translation":[0.013825424946844578,
		190.90255737304688,
		-1.3676906824111939],
		"rotation":[0.0,
		0.0,
		0.0,
		-1.0],
		"scale":[1.0,
		1.0,
		1.0],
		"mesh":0
	}],
	"meshes":[{
		"primitives":[{
			"attributes":{
				"POSITION":1
			},
			"indices":0,
			"material":0
		}]
	}],
	"accessors":[{
		"bufferView":0,
		"type":"SCALAR",
		"componentType":5123,
		"count":1608,
		"byteOffset":0,
		"min":[0],
		"max":[366]
	},
	{
		"bufferView":1,
		"type":"VEC3",
		"componentType":5126,
		"count":367,
		"byteOffset":0,
		"min":[-124.93589782714844,
		-185.74588012695313,
		-145.38111877441407],
		"max":[124.90824890136719,
		100.64378356933594,
		143.1140594482422]
	}],
	"buffers":[{
		"uri":"data:application/octet-stream;base64,",
		"byteLength":7620
	}],
	"materials":[{
		"pbrMetallicRoughness":{
			"baseColorFactor":[1.0,
			1.0,
			1.0,
			1.0],
			"metallicFactor":1.0,
			"roughnessFactor":1.0
		},
		"emissiveFactor":[0.0,
		0.0,
		0.0],
		"alphaMode":"OPAQUE",
		"doubleSided":true,
		"name":""
	}]
}