{
	"bufferViews":[{
		"buffer":0,
		"byteOffset":0,
		"byteLength":432,
		"target":34963
	},
	{
		"buffer":0,
		"byteOffset":432,
		"byteLength":3264,
		"target":34962,
		"byteStride":32
	},
	{
		"buffer":1,
		"byteOffset":0,
		"byteLength":432,
		"target":34963
	},
	{
		"buffer":1,
		"byteOffset":432,
		"byteLength":3264,
		"target":34962,
		"byteStride":32
	},
	{
		"buffer":2,
		"byteOffset":0,
		"byteLength":432,
		"target":34963
	},
	{
		"buffer":2,
		"byteOffset":432,
		"byteLength":3264,
		"target":34962,
		"byteStride":32
	},
	{
		"buffer":3,
		"byteOffset":0,
		"byteLength":432,
		"target":34963
	},
	{
		"buffer":3,
		"byteOffset":432,
		"byteLength":3264,
		"target":34962,
		"byteStride":32
	},
	{
		"buffer":4,
		"byteOffset":0,
		"byteLength":432,
		"target":34963
	},
	{
		"buffer":4,
		"byteOffset":432,
		"byteLength":3264,
		"target":34962,
		"byteStride":32
	},
	{
		"buffer":5,
		"byteOffset":0,
		"byteLength":720,
		"target":34963
	},
	{
		"buffer":5,
		"byteOffset":720,
		"byteLength":2912,
		"target":34962,
		"byteStride":32
	},
	{
		"buffer":6,
		"byteOffset":0,
		"byteLength":240,
		"target":34963
	},
	{
		"buffer":6,
		"byteOffset":240,
		"byteLength":3840,
		"target":34962,
		"byteStride":32
	},
	{
		"buffer":7,
		"byteOffset":0,
		"byteLength":48,
		"target":34963
	},
	{
		"buffer":7,
		"byteOffset":48,
		"byteLength":320,
		"target":34962,
		"byteStride":32
	},
	{
		"buffer":8,
		"byteOffset":0,
		"byteLength":48,
		"target":34963
	},
	{
		"buffer":8,
		"byteOffset":48,
		"byteLength":320,
		"target":34962,
		"byteStride":32
	}],
	"asset":{
		"version":"2.0",
		"generator":"Created using the official Cinema 4D glTF Exporter 1.000x290161"
	},
	"scenes":[{
		"nodes":[0,
		6,
		7]
	}],
	"nodes":[{
		"name":"Cloner",
		"children":[1,
		2,
		3,
		4,
		5]
	},
	{
		"name":"Cone 0",
		"mesh":0
	},
	{
		"name":"Cone 1",
		"translation":[0.0,
		30.0,
		0.0],
		"rotation":[0.0,
		0.0,
		0.0,
		-1.0],
		"scale":[0.800000011920929,
		0.800000011920929,
		0.800000011920929],
		"mesh":1
	},
	{
		"name":"Cone 2",
		"translation":[0.0,
		60.0,
		0.0],
		"rotation":[0.0,
		0.0,
		0.0,
		-1.0],
		"scale":[0.6000000238418579,
		0.6000000238418579,
		0.6000000238418579],
		"mesh":2
	},
	{
		"name":"Cone 3",
		"translation":[0.0,
		90.0,
		0.0],
		"rotation":[0.0,
		0.0,
		0.0,
		-1.0],
		"scale":[0.4000000059604645,
		0.4000000059604645,
		0.4000000059604645],
		"mesh":3
	},
	{
		"name":"Cone 4",
		"translation":[0.0,
		120.0,
		0.0],
		"rotation":[0.0,
		0.0,
		0.0,
		-1.0],
		"scale":[0.20000000298023225,
		0.20000000298023225,
		0.20000000298023225],
		"mesh":4
	},
	{
		"name":"cap",
		"translation":[0.0,
		135.74249267578126,
		0.0],
		"rotation":[0.0,
		0.0,
		0.0,
		-1.0],
		"scale":[1.0,
		1.0,
		1.0],
		"mesh":5
	},
	{
		"name":"Star",
		"translation":[0.0000016533512052774313,
		154.88966369628907,
		2.864813150160045e-13],
		"rotation":[-7.450580596923828e-9,
		-1.0,
		4.73655953665158e-16,
		-1.7484555314695172e-7],
		"scale":[1.0,
		1.0,
		1.0],
		"mesh":6,
		"children":[8,
		9]
	},
	{
		"name":"Cap 1",
		"translation":[0.000006086882876843447,
		-1.1198045257992256e-13,
		7.0],
		"rotation":[-0.5,
		-0.5000000596046448,
		-0.5000000596046448,
		-0.4999998211860657],
		"scale":[1.0000001192092896,
		1.0,
		1.0000001192092896],
		"mesh":7
	},
	{
		"name":"Cap 2",
		"translation":[-0.0000039009137253742669,
		-0.0000027696303277480185,
		-7.0],
		"rotation":[-0.5,
		-0.5000000596046448,
		-0.5000000596046448,
		-0.4999998211860657],
		"scale":[1.0000001192092896,
		1.0,
		1.0000001192092896],
		"mesh":8
	}],
	"meshes":[{
		"primitives":[{
			"attributes":{
				"POSITION":1,
				"NORMAL":2,
				"TEXCOORD_0":3
			},
			"indices":0,
			"material":0
		}]
	},
	{
		"primitives":[{
			"attributes":{
				"POSITION":5,
				"NORMAL":6,
				"TEXCOORD_0":7
			},
			"indices":4,
			"material":0
		}]
	},
	{
		"primitives":[{
			"attributes":{
				"POSITION":9,
				"NORMAL":10,
				"TEXCOORD_0":11
			},
			"indices":8,
			"material":0
		}]
	},
	{
		"primitives":[{
			"attributes":{
				"POSITION":13,
				"NORMAL":14,
				"TEXCOORD_0":15
			},
			"indices":12,
			"material":0
		}]
	},
	{
		"primitives":[{
			"attributes":{
				"POSITION":17,
				"NORMAL":18,
				"TEXCOORD_0":19
			},
			"indices":16,
			"material":0
		}]
	},
	{
		"primitives":[{
			"attributes":{
				"POSITION":21,
				"NORMAL":22,
				"TEXCOORD_0":23
			},
			"indices":20,
			"material":1
		}]
	},
	{
		"primitives":[{
			"attributes":{
				"POSITION":25,
				"NORMAL":26,
				"TEXCOORD_0":27
			},
			"indices":24,
			"material":1
		}]
	},
	{
		"primitives":[{
			"attributes":{
				"POSITION":29,
				"NORMAL":30,
				"TEXCOORD_0":31
			},
			"indices":28,
			"material":1
		}]
	},
	{
		"primitives":[{
			"attributes":{
				"POSITION":33,
				"NORMAL":34,
				"TEXCOORD_0":35
			},
			"indices":32,
			"material":1
		}]
	}],
	"accessors":[{
		"bufferView":0,
		"type":"SCALAR",
		"componentType":5123,
		"count":216,
		"byteOffset":0,
		"min":[0],
		"max":[101]
	},
	{
		"bufferView":1,
		"type":"VEC3",
		"componentType":5126,
		"count":102,
		"byteOffset":0,
		"min":[-124.92207336425781,
		-100.0,
		-146.74880981445313],
		"max":[124.92207336425781,
		100.0,
		141.74636840820313]
	},
	{
		"bufferView":1,
		"type":"VEC3",
		"componentType":5126,
		"count":102,
		"byteOffset":12,
		"min":[-0.8588290214538574,
		0.0,
		-0.969622790813446],
		"max":[0.8604307770729065,
		0.6338710188865662,
		0.969622790813446]
	},
	{
		"bufferView":1,
		"type":"VEC2",
		"componentType":5126,
		"count":102,
		"byteOffset":24,
		"min":[0.0,
		0.0],
		"max":[1.0,
		1.0]
	},
	{
		"bufferView":2,
		"type":"SCALAR",
		"componentType":5123,
		"count":216,
		"byteOffset":0,
		"min":[0],
		"max":[101]
	},
	{
		"bufferView":3,
		"type":"VEC3",
		"componentType":5126,
		"count":102,
		"byteOffset":0,
		"min":[-124.92207336425781,
		-100.0,
		-146.74880981445313],
		"max":[124.92207336425781,
		100.0,
		141.74636840820313]
	},
	{
		"bufferView":3,
		"type":"VEC3",
		"componentType":5126,
		"count":102,
		"byteOffset":12,
		"min":[-0.8588290214538574,
		0.0,
		-0.969622790813446],
		"max":[0.8604307770729065,
		0.6338710188865662,
		0.969622790813446]
	},
	{
		"bufferView":3,
		"type":"VEC2",
		"componentType":5126,
		"count":102,
		"byteOffset":24,
		"min":[0.0,
		0.0],
		"max":[1.0,
		1.0]
	},
	{
		"bufferView":4,
		"type":"SCALAR",
		"componentType":5123,
		"count":216,
		"byteOffset":0,
		"min":[0],
		"max":[101]
	},
	{
		"bufferView":5,
		"type":"VEC3",
		"componentType":5126,
		"count":102,
		"byteOffset":0,
		"min":[-124.92207336425781,
		-100.0,
		-146.74880981445313],
		"max":[124.92207336425781,
		100.0,
		141.74636840820313]
	},
	{
		"bufferView":5,
		"type":"VEC3",
		"componentType":5126,
		"count":102,
		"byteOffset":12,
		"min":[-0.8588290214538574,
		0.0,
		-0.969622790813446],
		"max":[0.8604307770729065,
		0.6338710188865662,
		0.969622790813446]
	},
	{
		"bufferView":5,
		"type":"VEC2",
		"componentType":5126,
		"count":102,
		"byteOffset":24,
		"min":[0.0,
		0.0],
		"max":[1.0,
		1.0]
	},
	{
		"bufferView":6,
		"type":"SCALAR",
		"componentType":5123,
		"count":216,
		"byteOffset":0,
		"min":[0],
		"max":[101]
	},
	{
		"bufferView":7,
		"type":"VEC3",
		"componentType":5126,
		"count":102,
		"byteOffset":0,
		"min":[-124.92207336425781,
		-100.0,
		-146.74880981445313],
		"max":[124.92207336425781,
		100.0,
		141.74636840820313]
	},
	{
		"bufferView":7,
		"type":"VEC3",
		"componentType":5126,
		"count":102,
		"byteOffset":12,
		"min":[-0.8588290214538574,
		0.0,
		-0.969622790813446],
		"max":[0.8604307770729065,
		0.6338710188865662,
		0.969622790813446]
	},
	{
		"bufferView":7,
		"type":"VEC2",
		"componentType":5126,
		"count":102,
		"byteOffset":24,
		"min":[0.0,
		0.0],
		"max":[1.0,
		1.0]
	},
	{
		"bufferView":8,
		"type":"SCALAR",
		"componentType":5123,
		"count":216,
		"byteOffset":0,
		"min":[0],
		"max":[101]
	},
	{
		"bufferView":9,
		"type":"VEC3",
		"componentType":5126,
		"count":102,
		"byteOffset":0,
		"min":[-124.92207336425781,
		-100.0,
		-146.74880981445313],
		"max":[124.92207336425781,
		100.0,
		141.74636840820313]
	},
	{
		"bufferView":9,
		"type":"VEC3",
		"componentType":5126,
		"count":102,
		"byteOffset":12,
		"min":[-0.8588290214538574,
		0.0,
		-0.969622790813446],
		"max":[0.8604307770729065,
		0.6338710188865662,
		0.969622790813446]
	},
	{
		"bufferView":9,
		"type":"VEC2",
		"componentType":5126,
		"count":102,
		"byteOffset":24,
		"min":[0.0,
		0.0],
		"max":[1.0,
		1.0]
	},
	{
		"bufferView":10,
		"type":"SCALAR",
		"componentType":5123,
		"count":360,
		"byteOffset":0,
		"min":[0],
		"max":[90]
	},
	{
		"bufferView":11,
		"type":"VEC3",
		"componentType":5126,
		"count":91,
		"byteOffset":0,
		"min":[-10.0,
		-12.5,
		-10.0],
		"max":[10.0,
		12.5,
		10.0]
	},
	{
		"bufferView":11,
		"type":"VEC3",
		"componentType":5126,
		"count":91,
		"byteOffset":12,
		"min":[-0.9524241089820862,
		-1.0,
		-0.9524241089820862],
		"max":[0.9524241089820862,
		1.0,
		0.9524241089820862]
	},
	{
		"bufferView":11,
		"type":"VEC2",
		"componentType":5126,
		"count":91,
		"byteOffset":24,
		"min":[0.0,
		0.0],
		"max":[1.0,
		1.0]
	},
	{
		"bufferView":12,
		"type":"SCALAR",
		"componentType":5123,
		"count":120,
		"byteOffset":0,
		"min":[0],
		"max":[119]
	},
	{
		"bufferView":13,
		"type":"VEC3",
		"componentType":5126,
		"count":120,
		"byteOffset":0,
		"min":[-29.95828628540039,
		-25.484045028686525,
		-7.0],
		"max":[29.958280563354493,
		31.500003814697267,
		7.0]
	},
	{
		"bufferView":13,
		"type":"VEC3",
		"componentType":5126,
		"count":120,
		"byteOffset":12,
		"min":[-0.536700427532196,
		-0.479911744594574,
		-0.9737709760665894],
		"max":[0.5367003083229065,
		0.5606085062026978,
		0.9737600088119507]
	},
	{
		"bufferView":13,
		"type":"VEC2",
		"componentType":5126,
		"count":120,
		"byteOffset":24,
		"min":[0.0,
		0.0],
		"max":[1.0,
		1.0]
	},
	{
		"bufferView":14,
		"type":"SCALAR",
		"componentType":5123,
		"count":24,
		"byteOffset":0,
		"min":[0],
		"max":[9]
	},
	{
		"bufferView":15,
		"type":"VEC3",
		"componentType":5126,
		"count":10,
		"byteOffset":0,
		"min":[-0.007000000216066837,
		0.0,
		-0.006657395511865616],
		"max":[0.007000000216066837,
		8.881784197001253e-16,
		0.006657395511865616]
	},
	{
		"bufferView":15,
		"type":"VEC3",
		"componentType":5126,
		"count":10,
		"byteOffset":12,
		"min":[-2.0530040341359968e-13,
		1.0,
		-2.82571790402239e-13],
		"max":[3.3218295735631955e-13,
		1.0,
		6.318497699879522e-13]
	},
	{
		"bufferView":15,
		"type":"VEC2",
		"componentType":5126,
		"count":10,
		"byteOffset":24,
		"min":[0.0,
		0.0],
		"max":[1.0,
		0.970343828201294]
	},
	{
		"bufferView":16,
		"type":"SCALAR",
		"componentType":5123,
		"count":24,
		"byteOffset":0,
		"min":[0],
		"max":[9]
	},
	{
		"bufferView":17,
		"type":"VEC3",
		"componentType":5126,
		"count":10,
		"byteOffset":0,
		"min":[-0.007000000216066837,
		-8.881784197001253e-16,
		-0.006657395511865616],
		"max":[0.007000000216066837,
		8.881784197001253e-16,
		0.006657395511865616]
	},
	{
		"bufferView":17,
		"type":"VEC3",
		"componentType":5126,
		"count":10,
		"byteOffset":12,
		"min":[-3.321830928815911e-13,
		-1.0,
		-2.82571790402239e-13],
		"max":[2.0530040341359968e-13,
		-1.0,
		1.5402565019858456e-13]
	},
	{
		"bufferView":17,
		"type":"VEC2",
		"componentType":5126,
		"count":10,
		"byteOffset":24,
		"min":[0.0,
		0.0],
		"max":[1.0,
		0.970343828201294]
	}],
	"buffers":[{
		"uri":"data:application/octet-stream;base64,",
		"byteLength":3696
	},
	{
		"uri":"data:application/octet-stream;base64,",
		"byteLength":3696
	},
	{
		"uri":"data:application/octet-stream;base64,",
		"byteLength":3696
	},
	{
		"uri":"data:application/octet-stream;base64,",
		"byteLength":3696
	},
	{
		"uri":"data:application/octet-stream;base64,",
		"byteLength":3696
	},
	{
		"uri":"data:application/octet-stream;base64,",
		"byteLength":3632
	},
	{
		"uri":"data:application/octet-stream;base64,",
		"byteLength":4080
	},
	{
		"uri":"data:application/octet-stream;base64,",
		"byteLength":368
	},
	{
		"uri":"data:application/octet-stream;base64,",
		"byteLength":368
	}],
	"materials":[{
		"pbrMetallicRoughness":{
			"baseColorFactor":[0.07599999999999974,
			0.76,
			0.0,
			1.0],
			"metallicFactor":1.0,
			"roughnessFactor":1.0
		},
		"emissiveFactor":[0.0,
		0.0,
		0.0],
		"alphaMode":"OPAQUE",
		"doubleSided":true,
		"name":"leaves"
	},
	{
		"pbrMetallicRoughness":{
			"baseColorFactor":[0.8446601941747574,
			0.5862739851693296,
			0.10641388273067809,
			1.0],
			"metallicFactor":1.0,
			"roughnessFactor":0.5
		},
		"emissiveFactor":[0.0,
		0.0,
		0.0],
		"alphaMode":"OPAQUE",
		"doubleSided":true,
		"name":"Star_Step1"
	}]
}